<mxfile host="app.diagrams.net" modified="2023-04-18T21:16:09.712Z" agent="Mozilla/5.0 (Macintosh; Intel Mac OS X 10_15_7) AppleWebKit/537.36 (KHTML, like Gecko) Chrome/112.0.0.0 Safari/537.36" etag="T377CfkoAB1-tRQ8BsMy" version="21.1.8" type="device">
  <diagram name="Page-1" id="aPJhwrL5nJCbtZhRuSIO">
    <mxGraphModel dx="1434" dy="772" grid="1" gridSize="10" guides="1" tooltips="1" connect="1" arrows="1" fold="1" page="1" pageScale="1" pageWidth="850" pageHeight="1100" math="0" shadow="0">
      <root>
        <mxCell id="0" />
        <mxCell id="1" parent="0" />
        <mxCell id="QJJKBPuXWmJcOUU4vKRK-2" value="" style="rounded=0;whiteSpace=wrap;html=1;" vertex="1" parent="1">
          <mxGeometry x="40" y="20" width="760" height="90" as="geometry" />
        </mxCell>
        <mxCell id="QJJKBPuXWmJcOUU4vKRK-4" value="&lt;font style=&quot;font-size: 18px;&quot;&gt;Avery&#39;s Organics&lt;br&gt;&lt;br&gt;&lt;/font&gt;" style="text;strokeColor=none;align=center;fillColor=none;html=1;verticalAlign=middle;whiteSpace=wrap;rounded=0;" vertex="1" parent="1">
          <mxGeometry x="100" y="60" width="650" height="30" as="geometry" />
        </mxCell>
        <mxCell id="QJJKBPuXWmJcOUU4vKRK-5" value="" style="rounded=0;whiteSpace=wrap;html=1;" vertex="1" parent="1">
          <mxGeometry x="40" y="160" width="360" height="580" as="geometry" />
        </mxCell>
        <mxCell id="QJJKBPuXWmJcOUU4vKRK-8" value="" style="rounded=0;whiteSpace=wrap;html=1;" vertex="1" parent="1">
          <mxGeometry x="440" y="160" width="360" height="580" as="geometry" />
        </mxCell>
        <mxCell id="QJJKBPuXWmJcOUU4vKRK-9" value="Today&#39;s Location" style="text;strokeColor=none;align=center;fillColor=none;html=1;verticalAlign=middle;whiteSpace=wrap;rounded=0;" vertex="1" parent="1">
          <mxGeometry x="80" y="180" width="280" height="30" as="geometry" />
        </mxCell>
        <mxCell id="QJJKBPuXWmJcOUU4vKRK-10" value="Produce Available for the month of:" style="text;strokeColor=none;align=center;fillColor=none;html=1;verticalAlign=middle;whiteSpace=wrap;rounded=0;" vertex="1" parent="1">
          <mxGeometry x="470" y="180" width="300" height="30" as="geometry" />
        </mxCell>
        <mxCell id="QJJKBPuXWmJcOUU4vKRK-12" value="" style="rounded=0;whiteSpace=wrap;html=1;" vertex="1" parent="1">
          <mxGeometry x="530" y="220" width="180" height="60" as="geometry" />
        </mxCell>
        <mxCell id="QJJKBPuXWmJcOUU4vKRK-13" value="" style="rounded=0;whiteSpace=wrap;html=1;" vertex="1" parent="1">
          <mxGeometry x="70" y="210" width="290" height="240" as="geometry" />
        </mxCell>
        <mxCell id="QJJKBPuXWmJcOUU4vKRK-14" value="" style="rounded=0;whiteSpace=wrap;html=1;" vertex="1" parent="1">
          <mxGeometry x="470" y="310" width="300" height="410" as="geometry" />
        </mxCell>
      </root>
    </mxGraphModel>
  </diagram>
</mxfile>
